# xmcd
#
# Track frame offsets: 
#        150
#        14472
#        29482
#        46987
#        59810
#        73077
#        89832
#        105730
#        122600
#        145122
#        160772
#        177507
#        192202
#        203702
#        215135
#        230485
#        242252
#        254830
#
# Disc length: 3821 seconds
#
# Revision: 0
# Processed by: cddbd v1.5.2PL0 Copyright (c) Steve Scherf et al.
# Submitted via: ExactAudioCopy v0.99pb5
#
DISCID=130eeb12
DTITLE=Various Artist - Lite Sounds of the 60s, 70s, 80s
DYEAR=1975
DGENRE=Slow Rock
TTITLE0=Association - Never My Love (1967)
TTITLE1=Perry Como - And I Love You So (1973)
TTITLE2=Air Supply - Lost In Love (1980)
TTITLE3=Henry Mancini - Theme from Love Story (1970)
TTITLE4=Dolly Parton - Here You Come Again (1977)
TTITLE5=Guess Who - These Eyes (1969)
TTITLE6=Fifth Dimension - One Less Bell To Answer (1970)
TTITLE7=J.D. Souther - You're Only Lonely (1979)
TTITLE8=Alan Parsons Project - Time (1981)
TTITLE9=Frankie Valli - My Eyes Adored You (1974)
TTITLE10=Eric Carmen - Change Of Heart (1978)
TTITLE11=Mama Cass - Dream A Little Dream Of Me (1968)
TTITLE12=B.W. Stevenson - My Maria (1973)
TTITLE13=Jim Croce - I'll Have To Say I Love You In A Song (1974)
TTITLE14=Four Tops - When She Was My Girl (1981)
TTITLE15=England Dan and John Ford Coley - I'd Really Love To See You To
TTITLE15=night (1976)
TTITLE16=Climax - Precious and Few (1972)
TTITLE17=Carly Simon - Comin' Round Again (Live) (1986)
EXTD=
EXTT0=
EXTT1=
EXTT2=
EXTT3=
EXTT4=
EXTT5=
EXTT6=
EXTT7=
EXTT8=
EXTT9=
EXTT10=
EXTT11=
EXTT12=
EXTT13=
EXTT14=
EXTT15=
EXTT16=
EXTT17=
PLAYORDER=
